HIERARCHY
ROOT RootJoint
{
    OFFSET   0.000000   0.000000   0.000000
    CHANNELS 6 Xposition Yposition Zposition Xrotation Yrotation Zrotation
    JOINT pelvis_lowerback
    {
        OFFSET   0.000000   0.093605   0.000000
        CHANNELS 3 Xrotation Yrotation Zrotation
        JOINT lowerback_torso
        {
            OFFSET   0.000000   0.100000   0.000000
            CHANNELS 3 Xrotation Yrotation Zrotation
            JOINT torso_head
            {
                OFFSET   0.000000   0.282350   0.000000
                CHANNELS 3 Xrotation Yrotation Zrotation
                End Site
                {
                    OFFSET   0.000000   0.192650   0.000000
                }
            }
            JOINT rTorso_Clavicle
            {
                OFFSET  -0.001000   0.157500   0.000000
                CHANNELS 3 Xrotation Yrotation Zrotation
                JOINT rShoulder
                {
                    OFFSET  -0.117647   0.000000   0.000000
                    CHANNELS 3 Xrotation Yrotation Zrotation
                    JOINT rElbow
                    {
                        OFFSET  -0.245000   0.000000   0.000000
                        CHANNELS 3 Xrotation Yrotation Zrotation
                        JOINT rWrist
                        {
                            OFFSET  -0.240000   0.000000   0.000000
                            CHANNELS 3 Xrotation Yrotation Zrotation
                            End Site
                            {
                                OFFSET  -0.116353  -0.002500   0.000000
                            }
                        }
                    }
                }
            }
            JOINT lTorso_Clavicle
            {
                OFFSET   0.001000   0.157500   0.000000
                CHANNELS 3 Xrotation Yrotation Zrotation
                JOINT lShoulder
                {
                    OFFSET   0.117647   0.000000   0.000000
                    CHANNELS 3 Xrotation Yrotation Zrotation
                    JOINT lElbow
                    {
                        OFFSET   0.245000   0.000000   0.000000
                        CHANNELS 3 Xrotation Yrotation Zrotation
                        JOINT lWrist
                        {
                            OFFSET   0.240000   0.000000   0.000000
                            CHANNELS 3 Xrotation Yrotation Zrotation
                            End Site
                            {
                                OFFSET   0.116353  -0.002500   0.000000
                            }
                        }
                    }
                }
            }
        }
    }
    JOINT rHip
    {
        OFFSET  -0.100000  -0.051395   0.000000
        CHANNELS 3 Xrotation Yrotation Zrotation
        JOINT rKnee
        {
            OFFSET   0.000000  -0.410000   0.000000
            CHANNELS 3 Xrotation Yrotation Zrotation
            JOINT rAnkle
            {
                OFFSET   0.000000  -0.390000   0.000000
                CHANNELS 3 Xrotation Yrotation Zrotation
                JOINT rToeJoint
                {
                    OFFSET   0.000000  -0.050000   0.130000
                    CHANNELS 3 Xrotation Yrotation Zrotation
                    End Site
                    {
                        OFFSET  -0.010000   0.002000   0.060000
                    }
                }
            }
        }
    }
    JOINT lHip
    {
        OFFSET   0.100000  -0.051395   0.000000
        CHANNELS 3 Xrotation Yrotation Zrotation
        JOINT lKnee
        {
            OFFSET   0.000000  -0.410000   0.000000
            CHANNELS 3 Xrotation Yrotation Zrotation
            JOINT lAnkle
            {
                OFFSET   0.000000  -0.390000   0.000000
                CHANNELS 3 Xrotation Yrotation Zrotation
                JOINT lToeJoint
                {
                    OFFSET   0.000000  -0.050000   0.130000
                    CHANNELS 3 Xrotation Yrotation Zrotation
                    End Site
                    {
                        OFFSET   0.010000   0.002000   0.060000
                    }
                }
            }
        }
    }
}
MOTION
Frames: 15
Frame Time:   0.008333
 -2.146474   0.884340   4.005081  -7.437894 -24.131406  -3.103080  29.213192   0.388526   2.903405  11.736589  -1.521337   1.542994  12.631446  -1.705195  -2.466316  -9.505808  20.150592 -17.701731 -38.825888  -6.934642  58.797995 179.999950  56.636873 179.999617  13.887889  -0.637686  18.020319  -9.325919 -13.998408  16.938198 -37.587595  12.372922 -49.663372 179.999179 -52.407626 -179.998677   8.698760  -0.780025 -12.257044 -16.104460  -3.381521  -8.620997  40.482363   0.000001   0.000023  -8.300939  -2.338077   1.085364 -13.986029   0.000003  -0.000002  -8.704388  13.644281  11.399776  32.527009  -0.000000   0.000050 -16.695193  13.097506   1.028934   1.171734  -0.000012   0.000000
 -2.146404   0.884210   4.004837  -7.496189 -24.176334  -3.137479  29.296333   0.356443   2.910661  11.718094  -1.577037   1.469298  12.642341  -1.681624  -2.487788  -9.615680  20.290652 -17.856656 -39.258520  -7.113790  58.577075 -179.999989  56.581650 179.999430  13.877602  -0.692256  18.156594  -9.331007 -14.221006  16.866872 -37.478602  12.242382 -49.744843 179.999330 -52.581172 -179.998245   8.704275  -0.784695 -12.280064 -16.112117  -3.321490  -8.593804  40.553370   0.000000   0.000025  -8.275405  -2.338156   1.074494 -14.042497  -0.000001  -0.000008  -8.701568  13.685914  11.431818  32.594367  -0.000000   0.000043 -16.719478  13.092210   1.025021   1.159427  -0.000010   0.000000
 -2.146421   0.883904   4.004594  -7.563219 -24.209615  -3.134746  29.373744   0.314022   2.879508  11.702300  -1.645628   1.375228  12.657748  -1.659272  -2.505800  -9.753728  20.436069 -18.023962 -39.701370  -7.273032  58.353337 -179.999977  56.526222 179.999304  13.868745  -0.733768  18.196979  -9.320166 -14.454974  16.789543 -37.366536  12.109914 -49.837731 179.999376 -52.749081 -179.997944   8.709302  -0.776855 -12.386081 -16.085470  -3.264385  -8.601303  40.602903  -0.000001   0.000027  -8.150560  -2.352912   1.038043 -15.108787  -0.000330  -0.000064  -8.705995  13.724688  11.433623  32.712560  -0.000003   0.000050 -16.768733  13.078308   1.014057   1.148991  -0.000008   0.000000
 -2.146433   0.883696   4.004270  -7.639242 -24.254892  -3.176468  29.476329   0.283357   2.872794  11.696739  -1.708795   1.279023  12.670396  -1.637855  -2.524301  -9.898471  20.584608 -18.192059 -40.134525  -7.412638  58.134534 -179.999989  56.473056 179.999240  13.853799  -0.748269  18.195475  -9.303156 -14.684470  16.699976 -37.255906  11.985412 -49.936937 179.999403 -52.906004 -179.997713   8.714248  -0.769740 -12.515718 -16.105627  -3.214663  -8.572732  40.732096  -0.000015   0.000022  -8.177420  -2.366729   1.048596 -14.957586  -0.000287  -0.000077  -8.706497  13.760757  11.477263  32.812664  -0.000009   0.000046 -16.805476  13.074001   1.009048   1.142402  -0.000006   0.000000
 -2.146470   0.883519   4.003922  -7.715426 -24.291134  -3.224526  29.579538   0.246326   2.859146  11.701067  -1.774785   1.185004  12.684519  -1.618126  -2.540125 -10.037287  20.725638 -18.352675 -40.543860  -7.539451  57.928349 179.999981  56.421454 179.999220  13.835392  -0.748870  18.180568  -9.282574 -14.904494  16.610624 -37.148913  11.867858 -50.035169 179.999404 -53.053677 -179.997582   8.718891  -0.759597 -12.661144 -16.128817  -3.169715  -8.537149  40.861937  -0.000026   0.000025  -8.164531  -2.371468   1.052589 -14.898516  -0.000237  -0.000064  -8.704748  13.788049  11.527114  32.901124  -0.000014   0.000044 -16.833824  13.068693   1.006340   1.138237  -0.000005   0.000000
 -2.146530   0.883355   4.003561  -7.788296 -24.320580  -3.271695  29.679643   0.206366   2.836597  11.709820  -1.842488   1.090468  12.698630  -1.600002  -2.555177 -10.167378  20.856685 -18.503960 -40.927048  -7.656191  57.734625 179.999941  56.372058 179.999235  13.815692  -0.742956  18.163435  -9.261029 -15.113007  16.524042 -37.047277  11.757389 -50.129631 179.999388 -53.192361 -179.997546   8.723581  -0.747045 -12.811722 -16.150975  -3.128790  -8.500033  40.984670  -0.000033   0.000032  -8.141374  -2.374838   1.054730 -14.877728  -0.000192  -0.000051  -8.704230  13.809682  11.577679  32.983019  -0.000019   0.000042 -16.857143  13.061970   1.004191   1.135711  -0.000004   0.000000
 -2.146608   0.883198   4.003195  -7.857181 -24.345345  -3.316703  29.776006   0.166084   2.806469  11.720936  -1.909738   0.995165  12.712136  -1.583291  -2.570037 -10.288217  20.977873 -18.645739 -41.284584  -7.764459  57.552680 179.999901  56.326116 179.999277  13.805237  -0.751672  18.149629  -9.240075 -15.308986  16.440850 -36.951758  11.654104 -50.219272 179.999365 -53.321675 -179.997590   8.722127  -0.747448 -12.952734 -16.171627  -3.091568  -8.462739  41.099057  -0.000038   0.000039  -8.115647  -2.377772   1.056213 -14.877721  -0.000154  -0.000041  -8.705765  13.827208  11.627785  33.060427  -0.000022   0.000041 -16.877079  13.054537   1.002238   1.134414  -0.000003   0.000000
 -2.146724   0.882906   4.002840  -7.991857 -24.330479  -3.398045  29.901800   0.112624   2.783758  11.770888  -1.983729   0.907549  12.743613  -1.603755  -2.562054 -10.415368  21.162614 -18.814321 -41.767987  -7.972799  57.306980 179.999920  56.314030 179.999373  13.810455  -0.764452  18.224100  -9.192002 -15.543439  16.347742 -36.703002  11.454103 -50.375351 179.999519 -53.374953 -179.997733   8.756991  -0.684710 -12.984446 -16.134000  -3.043822  -8.408118  41.257106  -0.000024   0.000115  -8.123149  -2.429090   1.059082 -14.894847  -0.000122  -0.000034  -8.686970  13.827071  11.703587  33.211290  -0.000025   0.000086 -16.935439  13.017780   1.001096   1.135020  -0.000002   0.000000
 -2.146856   0.882554   4.002468  -8.141108 -24.307700  -3.480829  30.034191   0.056388   2.751491  11.833408  -2.063817   0.811483  12.775262  -1.624080  -2.552016 -10.554656  21.349866 -18.983577 -42.244543  -8.160849  57.067206 179.999932  56.305439 179.999469  13.822863  -0.789177  18.239151  -9.125568 -15.781609  16.238768 -36.451812  11.258013 -50.544715 179.999620 -53.419096 -179.997906   8.778847  -0.661750 -13.110933 -16.093061  -2.995967  -8.358333  41.438881  -0.000009   0.000196  -8.141851  -2.482146   1.063600 -14.928947  -0.000095  -0.000030  -8.666409  13.821021  11.779454  33.385898  -0.000030   0.000136 -17.004688  12.977444   0.998929   1.136377  -0.000002   0.000000
 -2.147006   0.882183   4.002069  -8.291691 -24.282233  -3.561503  30.168507   0.000056   2.708385  11.901635  -2.145887   0.707579  12.805284  -1.643162  -2.542472 -10.691104  21.529891 -19.146671 -42.698153  -8.331227  56.839778 179.999937  56.296023 179.999548  13.832822  -0.804830  18.231825  -9.054619 -16.012641  16.123514 -36.209799  11.072844 -50.713209 179.999682 -53.460572 -179.998075   8.796617  -0.648825 -13.276217 -16.053975  -2.951255  -8.311020  41.625324   0.000000   0.000261  -8.164184  -2.532588   1.069344 -14.971582  -0.000072  -0.000028  -8.648188  13.811378  11.854677  33.565885  -0.000036   0.000179 -17.074616  12.937223   0.996217   1.138415  -0.000002   0.000000
 -2.147169   0.881813   4.001646  -8.438234 -24.255415  -3.639210  30.302307  -0.054674   2.655580  11.972927  -2.227124   0.598512  12.833638  -1.661114  -2.534295 -10.820107  21.699711 -19.300854 -43.124751  -8.487185  56.625677 179.999935  56.286033 179.999616  13.839927  -0.811766  18.219166  -8.984022 -16.232205  16.008211 -35.980289  10.899375 -50.875309 179.999720 -53.500116 -179.998239   8.813339  -0.635896 -13.452876 -16.017672  -2.910892  -8.264648  41.807221   0.000005   0.000308  -8.186824  -2.580161   1.075733 -15.017762  -0.000052  -0.000026  -8.633802  13.798797  11.929158  33.743307  -0.000042   0.000211 -17.140978  12.898181   0.993347   1.141023  -0.000002   0.000000
 -2.147338   0.881451   4.001200  -8.578495 -24.227677  -3.713539  30.434210  -0.106676   2.594941  12.045763  -2.305737   0.486541  12.860480  -1.678013  -2.527684 -10.940371  21.858810 -19.445446 -43.523998  -8.630719  56.424781 179.999931  56.275952 179.999676  13.845159  -0.813447  18.207464  -8.915827 -16.438803  15.896024 -35.764227  10.737296 -51.028801 179.999741 -53.537765 -179.998398   8.829800  -0.620971 -13.629857 -15.984329  -2.875126  -8.218930  41.980601   0.000005   0.000337  -8.208259  -2.625117   1.082393 -15.064774  -0.000035  -0.000025  -8.623577  13.783736  12.002403  33.914646  -0.000047   0.000232 -17.202138  12.860604   0.990481   1.144034  -0.000002   0.000000
 -2.147507   0.881102   4.000738  -8.711669 -24.199178  -3.784277  30.563352  -0.155242   2.528403  12.119118  -2.380592   0.373413  12.885939  -1.693908  -2.522554 -11.051795  22.007613 -19.580559 -43.896878  -8.763147  56.236648 179.999926  56.266083 179.999729  13.849252  -0.812281  18.198915  -8.850898 -16.632169  15.788478 -35.561586  10.586025 -51.172950 179.999753 -53.573494 -179.998549   8.846160  -0.604096 -13.802627 -15.953852  -2.843778  -8.174113  42.143982   0.000003   0.000351  -8.227830  -2.667758   1.089093 -15.111125  -0.000021  -0.000024  -8.617310  13.766617  12.073807  34.078446  -0.000051   0.000245 -17.257667  12.824493   0.987662   1.147279  -0.000002   0.000000
 -2.147763   0.880726   4.000362  -8.856885 -24.098176  -3.850140  30.673481  -0.213133   2.466162  12.200975  -2.457653   0.279950  12.933562  -1.769836  -2.491465 -11.135139  22.161417 -19.686262 -44.176049  -8.948686  56.058273 179.999994  56.295939 179.999807  13.849385  -0.765221  18.178837  -8.755920 -16.820634  15.642334 -35.182717  10.354697 -51.437535 179.999828 -53.506430 -179.999284   8.883778  -0.537053 -13.883707 -15.879065  -2.834072  -8.132936  42.307729   0.000022   0.000437  -8.301838  -2.777971   1.074760 -15.114075  -0.000017  -0.000019  -8.604470  13.718374  12.142308  34.252335  -0.000039   0.000321 -17.317947  12.745313   0.986242   1.151556  -0.000003   0.000000
 -2.148040   0.880338   3.999983  -9.006813 -23.979969  -3.910102  30.781220  -0.264178   2.401958  12.294230  -2.532575   0.184107  12.973474  -1.842069  -2.461414 -11.202005  22.302860 -19.774826 -44.426240  -9.127398  55.896565 -179.999939  56.330225 179.999855  13.860564  -0.755951  18.173582  -8.643879 -16.997012  15.476634 -34.803848  10.137622 -51.707892 179.999925 -53.434214 -179.999873   8.905045  -0.517563 -14.034301 -15.800793  -2.828566  -8.099417  42.482635   0.000046   0.000531  -8.378736  -2.896320   1.061649 -15.129146  -0.000015  -0.000016  -8.586906  13.662705  12.204628  34.425753  -0.000026   0.000396 -17.376079  12.657121   0.983770   1.155891  -0.000003   0.000000
